<svg width="732" height="730" viewBox="0 0 732 730" fill="none" xmlns="http://www.w3.org/2000/svg">
<path d="M303.492 87.0962L530.992 202.865M303.492 87.0962L133.877 292.16M303.492 87.0962L321.441 15.75M530.992 202.865L486.12 439.34M530.992 202.865L660.223 187.609M486.12 439.34L265.351 486.455M486.12 439.34L619.838 566.327M265.351 486.455L133.877 292.16M265.351 486.455L196.249 655.622M133.877 292.16L15.864 312.353M196.249 655.622L60.2871 530.878L15.864 312.353L118.172 142.737L321.441 15.75L530.992 51.6474L660.223 187.609L715.864 408.378L619.838 566.327L432.723 713.506L196.249 655.622Z" stroke="black" stroke-width="30"/>
<path d="M305.805 345.071H299.335V325.659H325.217V332.129H331.688V338.6H351.099V332.129H357.57V312.718H351.099V306.247H299.335V235.071H383.452V260.953H325.217V280.365H364.04V286.835H376.982V299.777H383.452V345.071H376.982V358.012H364.04V364.482H318.746V358.012H305.805V345.071Z" fill="black"/>
</svg>
