<svg width="730" height="847" viewBox="0 0 730 847" fill="none" xmlns="http://www.w3.org/2000/svg">
<path d="M363.965 139.742L124.763 567.059M363.965 139.742L605.237 567.059M15 213.953L363.965 139.742L715 213.953M124.763 567.059H605.237M124.763 567.059L15 213.953M124.763 567.059L15 628.499M124.763 567.059L363.965 829.387M605.237 567.059L363.965 829.387M605.237 567.059L715 628.499M605.237 567.059L715 213.953M15 628.499V213.953L363.965 17.207L715 213.953V628.499L363.965 829.387L15 628.499Z" stroke="black" stroke-width="30"/>
<path d="M271.471 455.854H277.941V449.384H284.412V442.913H290.882V436.442H297.353V429.972H303.824V423.501H310.294V417.031H316.765V410.56H323.235V404.089H329.706V391.148H323.235V384.678H303.824V391.148H297.353V397.619H271.471V378.207H277.941V365.266H290.882V358.795H336.176V365.266H349.118V378.207H355.588V410.56H349.118V417.031H342.647V423.501H336.176V429.972H329.706V436.442H323.235V442.913H316.765V449.384H310.294V455.854H303.824V462.325H355.588V488.207H271.471V455.854ZM375.025 378.207H381.496V365.266H394.437V358.795H433.261V365.266H446.202V378.207H452.672V468.795H446.202V481.736H433.261V488.207H394.437V481.736H381.496V468.795H375.025V378.207ZM400.908 455.854H407.378V462.325H420.319V455.854H426.79V391.148H420.319V384.678H407.378V391.148H400.908V455.854Z" fill="black"/>
</svg>
