<svg width="730" height="847" viewBox="0 0 730 847" fill="none" xmlns="http://www.w3.org/2000/svg">
<path d="M363.965 139.742L124.763 567.059M363.965 139.742L605.237 567.059M15 213.953L363.965 139.742L715 213.953M124.763 567.059H605.237M124.763 567.059L15 213.953M124.763 567.059L15 628.499M124.763 567.059L363.965 829.387M605.237 567.059L363.965 829.387M605.237 567.059L715 628.499M605.237 567.059L715 213.953M15 628.499V213.953L363.965 17.207L715 213.953V628.499L363.965 829.387L15 628.499Z" stroke="black" stroke-width="30"/>
<path d="M345.353 404.293H384.176V410.763H397.118V423.704H403.588V468.998H397.118V481.94H384.176V488.41H338.882V481.94H325.941V468.998H319.471V378.41H325.941V365.469H338.882V358.998H384.176V365.469H397.118V378.41H403.588V397.822H377.706V391.351H371.235V384.881H351.824V391.351H345.353V404.293ZM345.353 456.057H351.824V462.528H371.235V456.057H377.706V436.645H371.235V430.175H351.824V436.645H345.353V456.057Z" fill="black"/>
</svg>
