<svg width="730" height="847" viewBox="0 0 730 847" fill="none" xmlns="http://www.w3.org/2000/svg">
<path d="M363.965 139.742L124.763 567.059M363.965 139.742L605.237 567.059M15 213.953L363.965 139.742L715 213.953M124.763 567.059H605.237M124.763 567.059L15 213.953M124.763 567.059L15 628.499M124.763 567.059L363.965 829.387M605.237 567.059L363.965 829.387M605.237 567.059L715 628.499M605.237 567.059L715 213.953M15 628.499V213.953L363.965 17.207L715 213.953V628.499L363.965 829.387L15 628.499Z" stroke="black" stroke-width="30"/>
<path d="M345.353 436.645H371.235V397.822H364.765V404.293H358.294V410.763H351.824V417.234H345.353V436.645ZM319.471 410.763H325.941V404.293H332.412V397.822H338.882V391.351H345.353V384.881H351.824V378.41H358.294V371.94H364.765V365.469H371.235V358.998H397.118V488.41H371.235V462.528H319.471V410.763Z" fill="black"/>
</svg>
