<svg width="730" height="847" viewBox="0 0 730 847" fill="none" xmlns="http://www.w3.org/2000/svg">
<path d="M363.965 139.742L124.763 567.059M363.965 139.742L605.237 567.059M15 213.953L363.965 139.742L715 213.953M124.763 567.059H605.237M124.763 567.059L15 213.953M124.763 567.059L15 628.499M124.763 567.059L363.965 829.387M605.237 567.059L363.965 829.387M605.237 567.059L715 628.499M605.237 567.059L715 213.953M15 628.499V213.953L363.965 17.207L715 213.953V628.499L363.965 829.387L15 628.499Z" stroke="black" stroke-width="30"/>
<path d="M290.471 358.717H335.765V488.129H309.882V384.6H290.471V358.717ZM381.021 436.364H406.903V397.541H400.433V404.011H393.962V410.482H387.491V416.952H381.021V436.364ZM355.139 410.482H361.609V404.011H368.08V397.541H374.55V391.07H381.021V384.6H387.491V378.129H393.962V371.658H400.433V365.188H406.903V358.717H432.786V488.129H406.903V462.247H355.139V410.482Z" fill="black"/>
</svg>
