<svg width="730" height="847" viewBox="0 0 730 847" fill="none" xmlns="http://www.w3.org/2000/svg">
<path d="M363.965 139.742L124.763 567.059M363.965 139.742L605.237 567.059M15 213.953L363.965 139.742L715 213.953M124.763 567.059H605.237M124.763 567.059L15 213.953M124.763 567.059L15 628.499M124.763 567.059L363.965 829.387M605.237 567.059L363.965 829.387M605.237 567.059L715 628.499M605.237 567.059L715 213.953M15 628.499V213.953L363.965 17.207L715 213.953V628.499L363.965 829.387L15 628.499Z" stroke="black" stroke-width="30"/>
<path d="M319.471 456.057H325.941V449.587H332.412V443.116H338.882V436.645H345.353V430.175H351.824V423.704H358.294V417.234H364.765V410.763H371.235V404.293H377.706V391.351H371.235V384.881H351.824V391.351H345.353V397.822H319.471V378.41H325.941V365.469H338.882V358.998H384.176V365.469H397.118V378.41H403.588V410.763H397.118V417.234H390.647V423.704H384.176V430.175H377.706V436.645H371.235V443.116H364.765V449.587H358.294V456.057H351.824V462.528H403.588V488.41H319.471V456.057Z" fill="black"/>
</svg>
