<svg width="730" height="847" viewBox="0 0 730 847" fill="none" xmlns="http://www.w3.org/2000/svg">
<path d="M363.965 139.742L124.763 567.059M363.965 139.742L605.237 567.059M15 213.953L363.965 139.742L715 213.953M124.763 567.059H605.237M124.763 567.059L15 213.953M124.763 567.059L15 628.499M124.763 567.059L363.965 829.387M605.237 567.059L363.965 829.387M605.237 567.059L715 628.499M605.237 567.059L715 213.953M15 628.499V213.953L363.965 17.207L715 213.953V628.499L363.965 829.387L15 628.499Z" stroke="black" stroke-width="30"/>
<path d="M287.471 358.436H332.765V487.848H306.882V384.318H287.471V358.436ZM378.021 442.554H384.491V429.612H390.962V416.671H397.433V403.73H403.903V384.318H352.139V358.436H429.786V416.671H423.315V429.612H416.844V442.554H410.374V455.495H403.903V487.848H378.021V442.554Z" fill="black"/>
</svg>
