<svg width="730" height="847" viewBox="0 0 730 847" fill="none" xmlns="http://www.w3.org/2000/svg">
<path d="M363.965 139.742L124.763 567.06M363.965 139.742L605.237 567.06M15 213.953L363.965 139.742L715 213.953M124.763 567.06H605.237M124.763 567.06L15 213.953M124.763 567.06L15 628.499M124.763 567.06L363.965 829.387M605.237 567.06L363.965 829.387M605.237 567.06L715 628.499M605.237 567.06L715 213.953M15 628.499V213.953L363.965 17.2075L715 213.953V628.499L363.965 829.387L15 628.499Z" stroke="black" stroke-width="30"/>
<path d="M290.471 358.718H335.765V488.129H309.882V384.6H290.471V358.718ZM355.139 358.718H400.433V488.129H374.55V384.6H355.139V358.718Z" fill="black"/>
</svg>
