<svg width="730" height="847" viewBox="0 0 730 847" fill="none" xmlns="http://www.w3.org/2000/svg">
<path d="M363.965 139.742L124.763 567.059M363.965 139.742L605.237 567.059M15 213.953L363.965 139.742L715 213.953M124.763 567.059H605.237M124.763 567.059L15 213.953M124.763 567.059L15 628.499M124.763 567.059L363.965 829.387M605.237 567.059L363.965 829.387M605.237 567.059L715 628.499M605.237 567.059L715 213.953M15 628.499V213.953L363.965 17.207L715 213.953V628.499L363.965 829.387L15 628.499Z" stroke="black" stroke-width="30"/>
<path d="M283.471 358.795H328.765V488.207H302.882V384.678H283.471V358.795ZM399.903 410.56H406.374V391.148H399.903V384.678H380.491V391.148H374.021V410.56H380.491V417.031H399.903V410.56ZM354.609 468.795H348.139V449.384H374.021V455.854H380.491V462.325H399.903V455.854H406.374V442.913H367.55V436.442H354.609V423.501H348.139V378.207H354.609V365.266H367.55V358.795H412.844V365.266H425.786V378.207H432.256V468.795H425.786V481.736H412.844V488.207H367.55V481.736H354.609V468.795Z" fill="black"/>
</svg>
