<svg width="730" height="847" viewBox="0 0 730 847" fill="none" xmlns="http://www.w3.org/2000/svg">
<path d="M363.965 139.742L124.763 567.059M363.965 139.742L605.237 567.059M15 213.953L363.965 139.742L715 213.953M124.763 567.059H605.237M124.763 567.059L15 213.953M124.763 567.059L15 628.499M124.763 567.059L363.965 829.387M605.237 567.059L363.965 829.387M605.237 567.059L715 628.499M605.237 567.059L715 213.953M15 628.499V213.953L363.965 17.207L715 213.953V628.499L363.965 829.387L15 628.499Z" stroke="black" stroke-width="30"/>
<path d="M287.471 358.436H332.765V487.848H306.882V384.318H287.471V358.436ZM378.021 403.73H384.491V410.201H403.903V403.73H410.374V390.789H403.903V384.318H384.491V390.789H378.021V403.73ZM378.021 455.495H384.491V461.965H403.903V455.495H410.374V436.083H403.903V429.612H384.491V436.083H378.021V455.495ZM358.609 468.436H352.139V429.612H358.609V423.142H365.08V416.671H358.609V410.201H352.139V377.848H358.609V364.906H371.55V358.436H416.844V364.906H429.786V377.848H436.256V410.201H429.786V416.671H423.315V423.142H429.786V429.612H436.256V468.436H429.786V481.377H416.844V487.848H371.55V481.377H358.609V468.436Z" fill="black"/>
</svg>
