<svg width="730" height="847" viewBox="0 0 730 847" fill="none" xmlns="http://www.w3.org/2000/svg">
<path d="M363.965 139.742L124.763 567.059M363.965 139.742L605.237 567.059M15 213.953L363.965 139.742L715 213.953M124.763 567.059H605.237M124.763 567.059L15 213.953M124.763 567.059L15 628.499M124.763 567.059L363.965 829.387M605.237 567.059L363.965 829.387M605.237 567.059L715 628.499M605.237 567.059L715 213.953M15 628.499V213.953L363.965 17.207L715 213.953V628.499L363.965 829.387L15 628.499Z" stroke="black" stroke-width="30"/>
<path d="M345.353 443.116H351.824V430.175H358.294V417.234H364.765V404.293H371.235V384.881H319.471V358.998H397.118V417.234H390.647V430.175H384.176V443.116H377.706V456.057H371.235V488.41H345.353V443.116Z" fill="black"/>
</svg>
