<svg width="730" height="847" viewBox="0 0 730 847" fill="none" xmlns="http://www.w3.org/2000/svg">
<path d="M363.965 139.742L124.763 567.059M363.965 139.742L605.237 567.059M15 213.953L363.965 139.742L715 213.953M124.763 567.059H605.237M124.763 567.059L15 213.953M124.763 567.059L15 628.499M124.763 567.059L363.965 829.387M605.237 567.059L363.965 829.387M605.237 567.059L715 628.499M605.237 567.059L715 213.953M15 628.499V213.953L363.965 17.207L715 213.953V628.499L363.965 829.387L15 628.499Z" stroke="black" stroke-width="30"/>
<path d="M290.471 358.717H335.765V488.129H309.882V384.6H290.471V358.717ZM361.609 468.717H355.139V449.305H381.021V455.776H387.491V462.247H406.903V455.776H413.374V436.364H406.903V429.894H381.021V410.482H406.903V404.011H413.374V391.07H406.903V384.6H387.491V391.07H381.021V397.541H355.139V378.129H361.609V365.188H374.55V358.717H419.844V365.188H432.786V378.129H439.256V410.482H432.786V416.952H426.315V423.423H432.786V429.894H439.256V468.717H432.786V481.658H419.844V488.129H374.55V481.658H361.609V468.717Z" fill="black"/>
</svg>
