<svg width="700" height="640" viewBox="0 0 700 640" fill="none" xmlns="http://www.w3.org/2000/svg">
<path d="M674.701 625H25.2988L350 31.2607L674.701 625Z" stroke="black" stroke-width="30"/>
<path d="M313.941 455.588H307.471V436.176H333.353V442.647H339.824V449.118H359.235V442.647H365.706V423.235H359.235V416.765H333.353V397.353H359.235V390.882H365.706V377.941H359.235V371.471H339.824V377.941H333.353V384.412H307.471V365H313.941V352.059H326.882V345.588H372.176V352.059H385.118V365H391.588V397.353H385.118V403.824H378.647V410.294H385.118V416.765H391.588V455.588H385.118V468.529H372.176V475H326.882V468.529H313.941V455.588Z" fill="black"/>
</svg>
