<svg width="700" height="640" viewBox="0 0 700 640" fill="none" xmlns="http://www.w3.org/2000/svg">
<path d="M674.701 625H25.2988L350 31.2607L674.701 625Z" stroke="black" stroke-width="30"/>
<path d="M307.471 442.647H313.941V436.176H320.412V429.706H326.882V423.235H333.353V416.765H339.824V410.294H346.294V403.824H352.765V397.353H359.235V390.882H365.706V377.941H359.235V371.471H339.824V377.941H333.353V384.412H307.471V365H313.941V352.059H326.882V345.588H372.176V352.059H385.118V365H391.588V397.353H385.118V403.824H378.647V410.294H372.176V416.765H365.706V423.235H359.235V429.706H352.765V436.176H346.294V442.647H339.824V449.118H391.588V475H307.471V442.647Z" fill="black"/>
</svg>
