<svg width="730" height="833" viewBox="0 0 730 833" fill="none" xmlns="http://www.w3.org/2000/svg">
<path d="M715 601.575L358.478 814.618L15 601.575V192.879L358.478 16.792L715 192.879V601.575ZM358.478 16.792L15 601.575M358.478 16.792L715 601.575M15 601.575H715" stroke="black" stroke-width="30"/>
<path d="M313.353 453.027H320.706V445.674H328.059V438.321H335.412V430.968H342.765V423.616H350.118V416.263H357.471V408.91H364.824V401.557H372.176V394.204H379.529V379.498H372.176V372.145H350.118V379.498H342.765V386.851H313.353V364.792H320.706V350.086H335.412V342.733H386.882V350.086H401.588V364.792H408.941V401.557H401.588V408.91H394.235V416.263H386.882V423.616H379.529V430.968H372.176V438.321H364.824V445.674H357.471V453.027H350.118V460.38H408.941V489.792H313.353V453.027Z" fill="black"/>
</svg>
