<svg width="730" height="833" viewBox="0 0 730 833" fill="none" xmlns="http://www.w3.org/2000/svg">
<path d="M715 601.575L358.478 814.618L15 601.575V192.879L358.478 16.792L715 192.879V601.575ZM358.478 16.792L15 601.575M358.478 16.792L715 601.575M15 601.575H715" stroke="black" stroke-width="30"/>
<path d="M320.706 467.733H313.353V445.674H342.765V453.027H350.118V460.38H372.176V453.027H379.529V430.968H372.176V423.616H342.765V401.557H372.176V394.204H379.529V379.498H372.176V372.145H350.118V379.498H342.765V386.851H313.353V364.792H320.706V350.086H335.412V342.733H386.882V350.086H401.588V364.792H408.941V401.557H401.588V408.91H394.235V416.263H401.588V423.616H408.941V467.733H401.588V482.439H386.882V489.792H335.412V482.439H320.706V467.733Z" fill="black"/>
</svg>
