<svg width="730" height="833" viewBox="0 0 730 833" fill="none" xmlns="http://www.w3.org/2000/svg">
<path d="M715 601.575L358.478 814.618L15 601.575V192.879L358.478 16.792L715 192.879V601.575ZM358.478 16.792L15 601.575M358.478 16.792L715 601.575M15 601.575H715" stroke="black" stroke-width="30"/>
<path d="M342.765 430.968H372.176V386.851H364.824V394.204H357.471V401.557H350.118V408.91H342.765V430.968ZM313.353 401.557H320.706V394.204H328.059V386.851H335.412V379.498H342.765V372.145H350.118V364.792H357.471V357.439H364.824V350.086H372.176V342.733H401.588V489.792H372.176V460.38H313.353V401.557Z" fill="black"/>
</svg>
