<svg width="740" height="753" viewBox="0 0 740 753" fill="none" xmlns="http://www.w3.org/2000/svg">
<path d="M380.323 20L549.916 325.758M380.323 20L190.084 325.758M380.323 730.323L20 349.354L380.323 20L720 376.882L380.323 730.323ZM549.916 325.758L380.323 410.801M549.916 325.758L720 376.882M380.323 410.801L190.084 325.758M380.323 410.801V730.323M190.084 325.758L20 349.354" stroke="black" stroke-width="30"/>
<path d="M312.471 193.588H357.765V323H331.882V219.471H312.471V193.588ZM377.139 213H383.609V200.059H396.55V193.588H435.374V200.059H448.315V213H454.786V303.588H448.315V316.529H435.374V323H396.55V316.529H383.609V303.588H377.139V213ZM403.021 290.647H409.491V297.118H422.433V290.647H428.903V225.941H422.433V219.471H409.491V225.941H403.021V290.647Z" fill="black"/>
</svg>
