<svg width="740" height="754" viewBox="0 0 740 754" fill="none" xmlns="http://www.w3.org/2000/svg">
<path d="M380.323 20.9902L549.916 326.749M380.323 20.9902L190.084 326.749M380.323 731.313L20 350.344L380.323 20.9902L720 377.872L380.323 731.313ZM549.916 326.749L380.323 411.791M549.916 326.749L720 377.872M380.323 411.791L190.084 326.749M380.323 411.791V731.313M190.084 326.749L20 350.344" stroke="black" stroke-width="30"/>
<path d="M364.353 271.902H390.235V233.079H383.765V239.549H377.294V246.02H370.824V252.491H364.353V271.902ZM338.471 246.02H344.941V239.549H351.412V233.079H357.882V226.608H364.353V220.138H370.824V213.667H377.294V207.196H383.765V200.726H390.235V194.255H416.118V323.667H390.235V297.785H338.471V246.02Z" fill="black"/>
</svg>
