<svg width="740" height="754" viewBox="0 0 740 754" fill="none" xmlns="http://www.w3.org/2000/svg">
<path d="M380.323 20.9893L549.916 326.748M380.323 20.9893L190.084 326.748M380.323 731.312L20 350.343L380.323 20.9893L720 377.871L380.323 731.312ZM549.916 326.748L380.323 411.79M549.916 326.748L720 377.871M380.323 411.79L190.084 326.748M380.323 411.79V731.312M190.084 326.748L20 350.343" stroke="black" stroke-width="30"/>
<path d="M344.941 304.254H338.471V284.842H364.353V291.313H370.824V297.784H390.235V291.313H396.706V271.901H390.235V265.431H338.471V194.254H422.588V220.137H364.353V239.548H403.176V246.019H416.118V258.96H422.588V304.254H416.118V317.195H403.176V323.666H357.882V317.195H344.941V304.254Z" fill="black"/>
</svg>
