<svg width="740" height="754" viewBox="0 0 740 754" fill="none" xmlns="http://www.w3.org/2000/svg">
<path d="M380.323 20.9893L549.916 326.748M380.323 20.9893L190.084 326.748M380.323 731.312L20 350.343L380.323 20.9893L720 377.871L380.323 731.312ZM549.916 326.748L380.323 411.79M549.916 326.748L720 377.871M380.323 411.79L190.084 326.748M380.323 411.79V731.312M190.084 326.748L20 350.343" stroke="black" stroke-width="30"/>
<path d="M364.353 278.372H370.824V265.431H377.294V252.49H383.765V239.548H390.235V220.137H338.471V194.254H416.118V252.49H409.647V265.431H403.176V278.372H396.706V291.313H390.235V323.666H364.353V278.372Z" fill="black"/>
</svg>
