<svg width="740" height="754" viewBox="0 0 740 754" fill="none" xmlns="http://www.w3.org/2000/svg">
<path d="M380.323 20.9902L549.916 326.749M380.323 20.9902L190.084 326.749M380.323 731.313L20 350.344L380.323 20.9902L720 377.872L380.323 731.313ZM549.916 326.749L380.323 411.791M549.916 326.749L720 377.872M380.323 411.791L190.084 326.749M380.323 411.791V731.313M190.084 326.749L20 350.344" stroke="black" stroke-width="30"/>
<path d="M338.471 291.314H344.941V284.843H351.412V278.373H357.882V271.902H364.353V265.432H370.824V258.961H377.294V252.491H383.765V246.02H390.235V239.549H396.706V226.608H390.235V220.138H370.824V226.608H364.353V233.079H338.471V213.667H344.941V200.726H357.882V194.255H403.176V200.726H416.118V213.667H422.588V246.02H416.118V252.491H409.647V258.961H403.176V265.432H396.706V271.902H390.235V278.373H383.765V284.843H377.294V291.314H370.824V297.785H422.588V323.667H338.471V291.314Z" fill="black"/>
</svg>
