<svg width="700" height="700" viewBox="0 0 700 700" fill="none" xmlns="http://www.w3.org/2000/svg">
<path d="M287.824 393.882H296.647V385.059H305.471V376.235H314.294V367.412H323.118V358.588H331.941V349.765H340.765V340.941H349.588V332.118H358.412V323.294H367.235V305.647H358.412V296.824H331.941V305.647H323.118V314.471H287.824V288H296.647V270.353H314.294V261.529H376.059V270.353H393.706V288H402.529V332.118H393.706V340.941H384.882V349.765H376.059V358.588H367.235V367.412H358.412V376.235H349.588V385.059H340.765V393.882H331.941V402.706H402.529V438H287.824V393.882Z" fill="black"/>
<rect x="15" y="15" width="670" height="670" stroke="black" stroke-width="30"/>
</svg>
