<svg width="700" height="700" viewBox="0 0 700 700" fill="none" xmlns="http://www.w3.org/2000/svg">
<path d="M296.647 411.529H287.824V385.059H323.118V393.882H331.941V402.706H358.412V393.882H367.235V367.412H358.412V358.588H323.118V332.118H358.412V323.294H367.235V305.647H358.412V296.824H331.941V305.647H323.118V314.471H287.824V288H296.647V270.353H314.294V261.529H376.059V270.353H393.706V288H402.529V332.118H393.706V340.941H384.882V349.765H393.706V358.588H402.529V411.529H393.706V429.176H376.059V438H314.294V429.176H296.647V411.529Z" fill="black"/>
<rect x="15" y="15" width="670" height="670" stroke="black" stroke-width="30"/>
</svg>
