<svg width="740" height="752" viewBox="0 0 740 752" fill="none" xmlns="http://www.w3.org/2000/svg">
<path d="M380.323 20.9897L549.916 326.748M380.323 20.9897L190.084 326.748M380.323 731.313L20 350.344L380.323 20.9897L720 377.872L380.323 731.313ZM549.916 326.748L380.323 411.79M549.916 326.748L720 377.872M380.323 411.79L190.084 326.748M380.323 411.79V731.313M190.084 326.748L20 350.344" stroke="black" stroke-width="30"/>
<path d="M311.471 194.669H356.765V324.081H330.882V220.551H311.471V194.669ZM376.139 214.081H382.609V201.139H395.55V194.669H434.374V201.139H447.315V214.081H453.786V304.669H447.315V317.61H434.374V324.081H395.55V317.61H382.609V304.669H376.139V214.081ZM402.021 291.728H408.491V298.198H421.433V291.728H427.903V227.022H421.433V220.551H408.491V227.022H402.021V291.728Z" fill="black"/>
</svg>
