<svg width="740" height="754" viewBox="0 0 740 754" fill="none" xmlns="http://www.w3.org/2000/svg">
<path d="M380.323 20.9902L549.916 326.749M380.323 20.9902L190.084 326.749M380.323 731.313L20 350.344L380.323 20.9902L720 377.872L380.323 731.313ZM549.916 326.749L380.323 411.791M549.916 326.749L720 377.872M380.323 411.791L190.084 326.749M380.323 411.791V731.313M190.084 326.749L20 350.344" stroke="black" stroke-width="30"/>
<path d="M297.941 321.962H291.471V302.55H317.353V309.021H323.824V315.492H343.235V309.021H349.706V289.609H343.235V283.139H291.471V211.962H375.588V237.845H317.353V257.256H356.176V263.727H369.118V276.668H375.588V321.962H369.118V334.903H356.176V341.374H310.882V334.903H297.941V321.962ZM395.025 231.374H401.496V218.433H414.437V211.962H453.261V218.433H466.202V231.374H472.672V321.962H466.202V334.903H453.261V341.374H414.437V334.903H401.496V321.962H395.025V231.374ZM420.908 309.021H427.378V315.492H440.319V309.021H446.79V244.315H440.319V237.845H427.378V244.315H420.908V309.021Z" fill="black"/>
</svg>
