<svg width="740" height="754" viewBox="0 0 740 754" fill="none" xmlns="http://www.w3.org/2000/svg">
<path d="M380.323 20.9902L549.916 326.749M380.323 20.9902L190.084 326.749M380.323 731.313L20 350.344L380.323 20.9902L720 377.872L380.323 731.313ZM549.916 326.749L380.323 411.791M549.916 326.749L720 377.872M380.323 411.791L190.084 326.749M380.323 411.791V731.313M190.084 326.749L20 350.344" stroke="black" stroke-width="30"/>
<path d="M310.353 253.58H349.176V260.05H362.118V272.991H368.588V318.286H362.118V331.227H349.176V337.697H303.882V331.227H290.941V318.286H284.471V227.697H290.941V214.756H303.882V208.286H349.176V214.756H362.118V227.697H368.588V247.109H342.706V240.638H336.235V234.168H316.824V240.638H310.353V253.58ZM310.353 305.344H316.824V311.815H336.235V305.344H342.706V285.933H336.235V279.462H316.824V285.933H310.353V305.344ZM388.025 227.697H394.496V214.756H407.437V208.286H446.261V214.756H459.202V227.697H465.672V318.286H459.202V331.227H446.261V337.697H407.437V331.227H394.496V318.286H388.025V227.697ZM413.908 305.344H420.378V311.815H433.319V305.344H439.79V240.638H433.319V234.168H420.378V240.638H413.908V305.344Z" fill="black"/>
</svg>
