<svg width="740" height="754" viewBox="0 0 740 754" fill="none" xmlns="http://www.w3.org/2000/svg">
<path d="M380.323 20.9893L549.916 326.748M380.323 20.9893L190.084 326.748M380.323 731.312L20 350.343L380.323 20.9893L720 377.871L380.323 731.312ZM549.916 326.748L380.323 411.79M549.916 326.748L720 377.871M380.323 411.79L190.084 326.748M380.323 411.79V731.312M190.084 326.748L20 350.343" stroke="black" stroke-width="30"/>
<path d="M291.941 311.315H285.471V291.903H311.353V298.374H317.824V304.844H337.235V298.374H343.706V278.962H337.235V272.491H311.353V253.08H337.235V246.609H343.706V233.668H337.235V227.197H317.824V233.668H311.353V240.138H285.471V220.727H291.941V207.785H304.882V201.315H350.176V207.785H363.118V220.727H369.588V253.08H363.118V259.55H356.647V266.021H363.118V272.491H369.588V311.315H363.118V324.256H350.176V330.727H304.882V324.256H291.941V311.315ZM389.025 220.727H395.496V207.785H408.437V201.315H447.261V207.785H460.202V220.727H466.672V311.315H460.202V324.256H447.261V330.727H408.437V324.256H395.496V311.315H389.025V220.727ZM414.908 298.374H421.378V304.844H434.319V298.374H440.79V233.668H434.319V227.197H421.378V233.668H414.908V298.374Z" fill="black"/>
</svg>
