<svg width="740" height="754" viewBox="0 0 740 754" fill="none" xmlns="http://www.w3.org/2000/svg">
<path d="M380.323 20.9893L549.916 326.748M380.323 20.9893L190.084 326.748M380.323 731.312L20 350.343L380.323 20.9893L720 377.871L380.323 731.312ZM549.916 326.748L380.323 411.79M549.916 326.748L720 377.871M380.323 411.79L190.084 326.748M380.323 411.79V731.312M190.084 326.748L20 350.343" stroke="black" stroke-width="30"/>
<path d="M315.353 288.725H321.824V275.784H328.294V262.843H334.765V249.902H341.235V230.49H289.471V204.608H367.118V262.843H360.647V275.784H354.176V288.725H347.706V301.667H341.235V334.02H315.353V288.725ZM386.58 224.02H393.051V211.078H405.992V204.608H444.815V211.078H457.756V224.02H464.227V314.608H457.756V327.549H444.815V334.02H405.992V327.549H393.051V314.608H386.58V224.02ZM412.462 301.667H418.933V308.137H431.874V301.667H438.345V236.961H431.874V230.49H418.933V236.961H412.462V301.667Z" fill="black"/>
</svg>
