<svg width="740" height="754" viewBox="0 0 740 754" fill="none" xmlns="http://www.w3.org/2000/svg">
<path d="M380.323 20.9893L549.916 326.748M380.323 20.9893L190.084 326.748M380.323 731.312L20 350.343L380.323 20.9893L720 377.871L380.323 731.312ZM549.916 326.748L380.323 411.79M549.916 326.748L720 377.871M380.323 411.79L190.084 326.748M380.323 411.79V731.312M190.084 326.748L20 350.343" stroke="black" stroke-width="30"/>
<path d="M340.235 257.019H346.706V237.607H340.235V231.137H320.824V237.607H314.353V257.019H320.824V263.49H340.235V257.019ZM294.941 315.254H288.471V295.842H314.353V302.313H320.824V308.784H340.235V302.313H346.706V289.372H307.882V282.901H294.941V269.96H288.471V224.666H294.941V211.725H307.882V205.254H353.176V211.725H366.118V224.666H372.588V315.254H366.118V328.195H353.176V334.666H307.882V328.195H294.941V315.254ZM392.025 224.666H398.496V211.725H411.437V205.254H450.261V211.725H463.202V224.666H469.672V315.254H463.202V328.195H450.261V334.666H411.437V328.195H398.496V315.254H392.025V224.666ZM417.908 302.313H424.378V308.784H437.319V302.313H443.79V237.607H437.319V231.137H424.378V237.607H417.908V302.313Z" fill="black"/>
</svg>
