<svg width="740" height="754" viewBox="0 0 740 754" fill="none" xmlns="http://www.w3.org/2000/svg">
<path d="M380.323 20.9893L549.916 326.748M380.323 20.9893L190.084 326.748M380.323 731.312L20 350.343L380.323 20.9893L720 377.871L380.323 731.312ZM549.916 326.748L380.323 411.79M549.916 326.748L720 377.871M380.323 411.79L190.084 326.748M380.323 411.79V731.312M190.084 326.748L20 350.343" stroke="black" stroke-width="30"/>
<path d="M282.471 292.05H288.941V285.58H295.412V279.109H301.882V272.639H308.353V266.168H314.824V259.697H321.294V253.227H327.765V246.756H334.235V240.286H340.706V227.345H334.235V220.874H314.824V227.345H308.353V233.815H282.471V214.403H288.941V201.462H301.882V194.992H347.176V201.462H360.118V214.403H366.588V246.756H360.118V253.227H353.647V259.697H347.176V266.168H340.706V272.639H334.235V279.109H327.765V285.58H321.294V292.05H314.824V298.521H366.588V324.403H282.471V292.05ZM386.025 214.403H392.496V201.462H405.437V194.992H444.261V201.462H457.202V214.403H463.672V304.992H457.202V317.933H444.261V324.403H405.437V317.933H392.496V304.992H386.025V214.403ZM411.908 292.05H418.378V298.521H431.319V292.05H437.79V227.345H431.319V220.874H418.378V227.345H411.908V292.05Z" fill="black"/>
</svg>
