<svg width="740" height="753" viewBox="0 0 740 753" fill="none" xmlns="http://www.w3.org/2000/svg">
<path d="M380.323 20L549.916 325.758M380.323 20L190.084 325.758M380.323 730.323L20 349.354L380.323 20L720 376.882L380.323 730.323ZM549.916 325.758L380.323 410.801M549.916 325.758L720 376.882M380.323 410.801L190.084 325.758M380.323 410.801V730.323M190.084 325.758L20 349.354" stroke="black" stroke-width="30"/>
<path d="M287.471 231H293.941V218.059H306.882V211.588H345.706V218.059H358.647V231H365.118V321.588H358.647V334.529H345.706V341H306.882V334.529H293.941V321.588H287.471V231ZM313.353 308.647H319.824V315.118H332.765V308.647H339.235V243.941H332.765V237.471H319.824V243.941H313.353V308.647ZM384.58 231H391.051V218.059H403.992V211.588H442.815V218.059H455.756V231H462.227V321.588H455.756V334.529H442.815V341H403.992V334.529H391.051V321.588H384.58V231ZM410.462 308.647H416.933V315.118H429.874V308.647H436.345V243.941H429.874V237.471H416.933V243.941H410.462V308.647Z" fill="black"/>
</svg>
