<svg width="740" height="754" viewBox="0 0 740 754" fill="none" xmlns="http://www.w3.org/2000/svg">
<path d="M380.323 20.9902L549.916 326.749M380.323 20.9902L190.084 326.749M380.323 731.313L20 350.344L380.323 20.9902L720 377.872L380.323 731.313ZM549.916 326.749L380.323 411.791M549.916 326.749L720 377.872M380.323 411.791L190.084 326.749M380.323 411.791V731.313M190.084 326.749L20 350.344" stroke="black" stroke-width="30"/>
<path d="M312.353 271.902H338.235V233.079H331.765V239.549H325.294V246.02H318.824V252.491H312.353V271.902ZM286.471 246.02H292.941V239.549H299.412V233.079H305.882V226.608H312.353V220.138H318.824V213.667H325.294V207.196H331.765V200.726H338.235V194.255H364.118V323.667H338.235V297.785H286.471V246.02ZM383.58 213.667H390.051V200.726H402.992V194.255H441.815V200.726H454.756V213.667H461.227V304.255H454.756V317.196H441.815V323.667H402.992V317.196H390.051V304.255H383.58V213.667ZM409.462 291.314H415.933V297.785H428.874V291.314H435.345V226.608H428.874V220.138H415.933V226.608H409.462V291.314Z" fill="black"/>
</svg>
