<svg width="740" height="754" viewBox="0 0 740 754" fill="none" xmlns="http://www.w3.org/2000/svg">
<path d="M380.323 20.9902L549.916 326.749M380.323 20.9902L190.084 326.749M380.323 731.313L20 350.344L380.323 20.9902L720 377.872L380.323 731.313ZM549.916 326.749L380.323 411.791M549.916 326.749L720 377.872M380.323 411.791L190.084 326.749M380.323 411.791V731.313M190.084 326.749L20 350.344" stroke="black" stroke-width="30"/>
<path d="M315.353 257.226H321.824V263.697H341.235V257.226H347.706V244.285H341.235V237.814H321.824V244.285H315.353V257.226ZM315.353 308.991H321.824V315.461H341.235V308.991H347.706V289.579H341.235V283.108H321.824V289.579H315.353V308.991ZM295.941 321.932H289.471V283.108H295.941V276.638H302.412V270.167H295.941V263.697H289.471V231.344H295.941V218.403H308.882V211.932H354.176V218.403H367.118V231.344H373.588V263.697H367.118V270.167H360.647V276.638H367.118V283.108H373.588V321.932H367.118V334.873H354.176V341.344H308.882V334.873H295.941V321.932ZM393.025 231.344H399.496V218.403H412.437V211.932H451.261V218.403H464.202V231.344H470.672V321.932H464.202V334.873H451.261V341.344H412.437V334.873H399.496V321.932H393.025V231.344ZM418.908 308.991H425.378V315.461H438.319V308.991H444.79V244.285H438.319V237.814H425.378V244.285H418.908V308.991Z" fill="black"/>
</svg>
